# xmcd CD database file
# Copyright (C) 1993-1998 Ti Kan
#
# Track frame offsets:
# 182
# 16515
# 30125
# 40467
# 53470
# 64935
# 80082
# 90677
# 102532
# 114327
# 128027
# 139382
# 153632
# 161960
# 174630
# 186697
# 196490
# 211412
# 226830
# 239277
# 252757
# 264710
# 277180
# 288115
#
# Disc length: 4032 seconds
# Submitted via: CD-Runner 7.0
#
# Revision: 1
# Processed by: cddbd v1.4b41PL1 Copyright (c) Steve Scherf et al.
#
DISCID=5d0fbe18
DTITLE=Gene Pitney - 24 Greatest Hits
DYEAR=1900
DGENRE=
TTITLE0=Something's Got A Hold Of My Heart
TTITLE1=Twenty Four Hours From Tulsa
TTITLE2=I'm Gonna Be Strong
TTITLE3=Only Love Can Break A Heart
TTITLE4=It Hurts To Be In Love
TTITLE5=Looking Through The Eyes Of Love
TTITLE6=Mecca
TTITLE7=Just One Smile
TTITLE8=Princess In Rags
TTITLE9=The Man Who Shot Liberty Valance
TTITLE10=I Must Be Seeing Things
TTITLE11=Last Chance To Turn Around
TTITLE12=(I Wanna) Love My Life Away
TTITLE13=Baby, You're My Kind Of Woman
TTITLE14=Every Breath I Take
TTITLE15=Hello Mary Lou
TTITLE16=She's A Heartache
TTITLE17=Unchained Melody
TTITLE18=Summertime Dreamin'
TTITLE19=Town Without Pity
TTITLE20=Back Stage
TTITLE21=Half Heaven - Half Heartache
TTITLE22=True Love Never Runs Smooth
TTITLE23=Somewhere In The Country
EXTD=
EXTT0=
EXTT1=
EXTT2=
EXTT3=
EXTT4=
EXTT5=
EXTT6=
EXTT7=
EXTT8=
EXTT9=
EXTT10=
EXTT11=
EXTT12=
EXTT13=
EXTT14=
EXTT15=
EXTT16=
EXTT17=
EXTT18=
EXTT19=
EXTT20=
EXTT21=
EXTT22=
EXTT23=
PLAYORDER=
